<svg
          class="svg-standalone-icon"
          width="100%"
          viewBox="204.92620995947829 115.00000000000001 140.1475800810435 155.35650369091178"
        >
          <g
            data-paper-data='{"fillRule":"nonzero","fillRuleOriginal":"nonzero","isIcon":true,"iconStyle":"standalone","selectedEffects":{"container":"hexagon_simple_outline2_rounded_upright","transformation":"","pattern":""},"bounds":{"x":204.92620995947829,"y":115.00000000000001,"width":140.1475800810435,"height":155.35650369091178},"widthRatioIconToContainer":0.30511078851525947,"heightRatioIconToContainer":0.724213324079632,"relativeBoundsIconToContainer":{"top":-0.0000013772221266795507,"left":-9.895831300667088e-8},"iconType":"initial","initialText":"E","rawInitialId":954,"suitableAsStandaloneIcon":true}'
            fill-rule="nonzero"
          >
            <path
              d="M253.61971,248.93365v-112.51124h42.76054v16.86884h-20.24261v30.99159h15.69195v16.86884h-15.69195v30.91313h20.24261v16.86884zM333.86352,145.74883c7.47351,4.31484 11.21027,10.78704 11.21027,19.41661v55.02549c0,8.62957 -3.73676,15.10188 -11.21027,19.41693l-47.65365,27.51275c-7.47325,4.31452 -14.94658,4.31452 -22.41998,0l-47.65349,-27.51275c-7.47346,-4.31505 -11.21019,-10.78736 -11.21019,-19.41693v-55.02549c0,-8.62957 3.73673,-15.10177 11.21019,-19.41661l47.65349,-27.51273c7.47341,-4.3148 14.94673,-4.3148 22.41998,0zM208.92106,165.16544v55.02549c0,7.092 3.07092,12.41087 9.21276,15.95661l47.65349,27.51275c6.14184,3.54626 12.28366,3.54626 18.42544,0l47.65334,-27.51275c6.14189,-3.54574 9.21284,-8.86461 9.21284,-15.95661v-55.02549c0,-7.092 -3.07095,-12.41097 -9.21284,-15.95692l-47.65334,-27.51277c-6.14184,-3.54599 -12.28366,-3.54599 -18.42544,0l-47.65349,27.51277c-6.14184,3.54595 -9.21276,8.86492 -9.21276,15.95692z"
              data-paper-data='{"isPathIcon":true}'
              style="fill: black"
            ></path>
          </g>
        </svg>